<mxfile host="65bd71144e">
    <diagram name="PÃ¡gina-1" id="oDKx01zZ5vxRKA5znKhv">
        <mxGraphModel dx="2054" dy="779" grid="1" gridSize="10" guides="1" tooltips="1" connect="1" arrows="1" fold="1" page="1" pageScale="1" pageWidth="827" pageHeight="1169" math="0" shadow="0">
            <root>
                <mxCell id="0"/>
                <mxCell id="2" value="Untitled Layer" parent="0"/>
                <mxCell id="3" value="" style="rounded=0;whiteSpace=wrap;html=1;" parent="2" vertex="1">
                    <mxGeometry x="350" y="270" width="120" height="60" as="geometry"/>
                </mxCell>
                <mxCell id="4" value="" style="rounded=0;whiteSpace=wrap;html=1;" parent="2" vertex="1">
                    <mxGeometry x="350" y="270" width="120" height="60" as="geometry"/>
                </mxCell>
                <mxCell id="5" value="" style="rounded=0;whiteSpace=wrap;html=1;" parent="2" vertex="1">
                    <mxGeometry x="350" y="270" width="120" height="60" as="geometry"/>
                </mxCell>
                <mxCell id="6" value="" style="rounded=0;whiteSpace=wrap;html=1;" parent="2" vertex="1">
                    <mxGeometry x="-100" y="10" width="1330" height="1320" as="geometry"/>
                </mxCell>
                <mxCell id="18" value="" style="ellipse;whiteSpace=wrap;html=1;aspect=fixed;" parent="2" vertex="1">
                    <mxGeometry x="348" y="925" width="35" height="35" as="geometry"/>
                </mxCell>
                <mxCell id="51" value="" style="swimlane;startSize=0;" parent="2" vertex="1">
                    <mxGeometry x="540" y="350" width="200" height="200" as="geometry"/>
                </mxCell>
                <mxCell id="1" parent="0"/>
                <mxCell id="-gaBI5YNp0DLK8B5nc4l-1" value="&lt;font style=&quot;color: rgb(0, 0, 0);&quot;&gt;&amp;lt;&amp;lt;Component&amp;gt;&amp;gt;&lt;/font&gt;&lt;div&gt;&amp;lt;&amp;lt;Container (C4)&amp;gt;&amp;gt;&lt;/div&gt;&lt;div&gt;&lt;b&gt;&lt;font style=&quot;color: rgb(0, 0, 0);&quot;&gt;MelmacBE&lt;/font&gt;&lt;/b&gt;&lt;/div&gt;&lt;div&gt;&lt;br&gt;&lt;/div&gt;&lt;div&gt;&lt;br&gt;&lt;/div&gt;&lt;div&gt;&lt;br&gt;&lt;/div&gt;&lt;div&gt;&lt;br&gt;&lt;/div&gt;&lt;div&gt;&lt;br&gt;&lt;/div&gt;&lt;div&gt;&lt;br&gt;&lt;/div&gt;&lt;div&gt;&lt;br&gt;&lt;/div&gt;&lt;div&gt;&lt;br&gt;&lt;/div&gt;&lt;div&gt;&lt;br&gt;&lt;/div&gt;&lt;div&gt;&lt;br&gt;&lt;/div&gt;&lt;div&gt;&lt;br&gt;&lt;/div&gt;&lt;div&gt;&lt;br&gt;&lt;/div&gt;&lt;div&gt;&lt;br&gt;&lt;/div&gt;&lt;div&gt;&lt;br&gt;&lt;/div&gt;&lt;div&gt;&lt;br&gt;&lt;/div&gt;&lt;div&gt;&lt;br&gt;&lt;/div&gt;&lt;div&gt;&lt;br&gt;&lt;/div&gt;&lt;div&gt;&lt;br&gt;&lt;/div&gt;&lt;div&gt;&lt;br&gt;&lt;/div&gt;&lt;div&gt;&lt;br&gt;&lt;/div&gt;&lt;div&gt;&lt;br&gt;&lt;/div&gt;&lt;div&gt;&lt;br&gt;&lt;/div&gt;&lt;div&gt;&lt;br&gt;&lt;/div&gt;&lt;div&gt;&lt;br&gt;&lt;/div&gt;&lt;div&gt;&lt;br&gt;&lt;/div&gt;&lt;div&gt;&lt;br&gt;&lt;/div&gt;&lt;div&gt;&lt;br&gt;&lt;/div&gt;&lt;div&gt;&lt;br&gt;&lt;/div&gt;&lt;div&gt;&lt;br&gt;&lt;/div&gt;&lt;div&gt;&lt;br&gt;&lt;/div&gt;&lt;div&gt;&lt;br&gt;&lt;/div&gt;&lt;div&gt;&lt;br&gt;&lt;/div&gt;&lt;div&gt;&lt;br&gt;&lt;/div&gt;&lt;div&gt;&lt;br&gt;&lt;/div&gt;&lt;div&gt;&lt;br&gt;&lt;/div&gt;&lt;div&gt;&lt;br&gt;&lt;/div&gt;&lt;div&gt;&lt;br&gt;&lt;/div&gt;&lt;div&gt;&lt;br&gt;&lt;/div&gt;&lt;div&gt;&lt;br&gt;&lt;/div&gt;&lt;div&gt;&lt;br&gt;&lt;/div&gt;&lt;div&gt;&lt;br&gt;&lt;/div&gt;&lt;div&gt;&lt;br&gt;&lt;/div&gt;&lt;div&gt;&lt;br&gt;&lt;/div&gt;&lt;div&gt;&lt;br&gt;&lt;/div&gt;&lt;div&gt;&lt;br&gt;&lt;/div&gt;&lt;div&gt;&lt;br&gt;&lt;/div&gt;&lt;div&gt;&lt;br&gt;&lt;/div&gt;&lt;div&gt;&lt;br&gt;&lt;/div&gt;&lt;div&gt;&lt;br&gt;&lt;/div&gt;&lt;div&gt;&lt;br&gt;&lt;/div&gt;&lt;div&gt;&lt;br&gt;&lt;/div&gt;&lt;div&gt;&lt;br&gt;&lt;/div&gt;&lt;div&gt;&lt;br&gt;&lt;/div&gt;&lt;div&gt;&lt;br&gt;&lt;/div&gt;&lt;div&gt;&lt;br&gt;&lt;/div&gt;&lt;div&gt;&lt;br&gt;&lt;/div&gt;&lt;div&gt;&lt;br&gt;&lt;/div&gt;&lt;div&gt;&lt;br&gt;&lt;/div&gt;&lt;div&gt;&lt;br&gt;&lt;/div&gt;&lt;div&gt;&lt;br&gt;&lt;/div&gt;&lt;div&gt;&lt;br&gt;&lt;/div&gt;&lt;div&gt;&lt;br&gt;&lt;/div&gt;&lt;div&gt;&lt;br&gt;&lt;/div&gt;&lt;div&gt;&lt;br&gt;&lt;/div&gt;&lt;div&gt;&lt;br&gt;&lt;/div&gt;&lt;div&gt;&lt;br&gt;&lt;/div&gt;&lt;div&gt;&lt;br&gt;&lt;/div&gt;&lt;div&gt;&lt;br&gt;&lt;/div&gt;" style="html=1;dropTarget=0;whiteSpace=wrap;fillColor=#f5f5f5;strokeColor=#666666;fontColor=#333333;labelBackgroundColor=light-dark(#f5f5f5, #ededed);" parent="1" vertex="1">
                    <mxGeometry x="45" y="160" width="960" height="1050" as="geometry"/>
                </mxCell>
                <mxCell id="-gaBI5YNp0DLK8B5nc4l-2" value="" style="shape=module;jettyWidth=8;jettyHeight=4;" parent="-gaBI5YNp0DLK8B5nc4l-1" vertex="1">
                    <mxGeometry x="1" width="20" height="20" relative="1" as="geometry">
                        <mxPoint x="-27" y="7" as="offset"/>
                    </mxGeometry>
                </mxCell>
                <mxCell id="-gaBI5YNp0DLK8B5nc4l-3" value="Frameworks and Drivers Layer&lt;div&gt;&lt;br&gt;&lt;/div&gt;&lt;div&gt;&lt;br&gt;&lt;/div&gt;&lt;div&gt;&lt;br&gt;&lt;/div&gt;&lt;div&gt;&lt;br&gt;&lt;/div&gt;&lt;div&gt;&lt;br&gt;&lt;/div&gt;&lt;div&gt;&lt;br&gt;&lt;/div&gt;" style="shape=folder;fontStyle=1;tabWidth=80;tabHeight=30;tabPosition=left;html=1;boundedLbl=1;whiteSpace=wrap;fillColor=#dae8fc;strokeColor=#6c8ebf;" parent="1" vertex="1">
                    <mxGeometry x="70" y="200" width="910" height="150" as="geometry"/>
                </mxCell>
                <mxCell id="-gaBI5YNp0DLK8B5nc4l-4" value="Interface Adapters Layer&lt;div&gt;&lt;br&gt;&lt;/div&gt;&lt;div&gt;&lt;br&gt;&lt;/div&gt;&lt;div&gt;&lt;br&gt;&lt;/div&gt;&lt;div&gt;&lt;br&gt;&lt;/div&gt;&lt;div&gt;&lt;br&gt;&lt;/div&gt;&lt;div&gt;&lt;br&gt;&lt;/div&gt;" style="shape=folder;fontStyle=1;tabWidth=80;tabHeight=30;tabPosition=left;html=1;boundedLbl=1;whiteSpace=wrap;fillColor=#d5e8d4;strokeColor=#82b366;" parent="1" vertex="1">
                    <mxGeometry x="70" y="460" width="910" height="150" as="geometry"/>
                </mxCell>
                <mxCell id="-gaBI5YNp0DLK8B5nc4l-5" value="Application Business Rules&lt;div&gt;&lt;br&gt;&lt;/div&gt;&lt;div&gt;&lt;br&gt;&lt;/div&gt;&lt;div&gt;&lt;br&gt;&lt;/div&gt;&lt;div&gt;&lt;br&gt;&lt;/div&gt;&lt;div&gt;&lt;br&gt;&lt;/div&gt;" style="shape=folder;fontStyle=1;tabWidth=80;tabHeight=30;tabPosition=left;html=1;boundedLbl=1;whiteSpace=wrap;fillColor=#e1d5e7;strokeColor=#9673a6;" parent="1" vertex="1">
                    <mxGeometry x="70" y="750" width="910" height="150" as="geometry"/>
                </mxCell>
                <mxCell id="-gaBI5YNp0DLK8B5nc4l-6" value="Enterprise Business Rules&lt;div&gt;&lt;br&gt;&lt;/div&gt;&lt;div&gt;&lt;br&gt;&lt;/div&gt;&lt;div&gt;&lt;br&gt;&lt;/div&gt;&lt;div&gt;&lt;br&gt;&lt;/div&gt;&lt;div&gt;&lt;br&gt;&lt;/div&gt;" style="shape=folder;fontStyle=1;tabWidth=80;tabHeight=30;tabPosition=left;html=1;boundedLbl=1;whiteSpace=wrap;fillColor=#ffe6cc;strokeColor=#d79b00;" parent="1" vertex="1">
                    <mxGeometry x="70" y="1000" width="910" height="150" as="geometry"/>
                </mxCell>
                <mxCell id="-gaBI5YNp0DLK8B5nc4l-7" value="&amp;lt;&amp;lt;Component&amp;gt;&amp;gt;&lt;div&gt;Routing&lt;/div&gt;" style="html=1;dropTarget=0;whiteSpace=wrap;" parent="1" vertex="1">
                    <mxGeometry x="100" y="260" width="140" height="70" as="geometry"/>
                </mxCell>
                <mxCell id="-gaBI5YNp0DLK8B5nc4l-8" value="" style="shape=module;jettyWidth=8;jettyHeight=4;" parent="-gaBI5YNp0DLK8B5nc4l-7" vertex="1">
                    <mxGeometry x="1" width="20" height="20" relative="1" as="geometry">
                        <mxPoint x="-27" y="7" as="offset"/>
                    </mxGeometry>
                </mxCell>
                <mxCell id="-gaBI5YNp0DLK8B5nc4l-35" style="edgeStyle=orthogonalEdgeStyle;rounded=0;orthogonalLoop=1;jettySize=auto;html=1;endArrow=halfCircle;endFill=0;endSize=11;" parent="1" source="-gaBI5YNp0DLK8B5nc4l-9" edge="1">
                    <mxGeometry relative="1" as="geometry">
                        <Array as="points">
                            <mxPoint x="140" y="640"/>
                            <mxPoint x="140" y="640"/>
                        </Array>
                        <mxPoint x="140" y="670" as="targetPoint"/>
                    </mxGeometry>
                </mxCell>
                <mxCell id="-gaBI5YNp0DLK8B5nc4l-74" style="edgeStyle=orthogonalEdgeStyle;rounded=0;orthogonalLoop=1;jettySize=auto;html=1;entryX=0.5;entryY=0;entryDx=0;entryDy=0;endArrow=none;endFill=0;" parent="1" source="-gaBI5YNp0DLK8B5nc4l-9" target="-gaBI5YNp0DLK8B5nc4l-69" edge="1">
                    <mxGeometry relative="1" as="geometry">
                        <Array as="points"/>
                    </mxGeometry>
                </mxCell>
                <mxCell id="31" style="edgeStyle=none;html=1;exitX=0.5;exitY=0;exitDx=0;exitDy=0;endArrow=oval;endFill=0;endSize=18;" parent="1" source="-gaBI5YNp0DLK8B5nc4l-9" edge="1">
                    <mxGeometry relative="1" as="geometry">
                        <mxPoint x="169.76470588235293" y="400" as="targetPoint"/>
                    </mxGeometry>
                </mxCell>
                <mxCell id="-gaBI5YNp0DLK8B5nc4l-9" value="&amp;lt;&amp;lt;Component&amp;gt;&amp;gt;&lt;div&gt;Controller&lt;/div&gt;" style="html=1;dropTarget=0;whiteSpace=wrap;" parent="1" vertex="1">
                    <mxGeometry x="100" y="520" width="140" height="70" as="geometry"/>
                </mxCell>
                <mxCell id="-gaBI5YNp0DLK8B5nc4l-10" value="" style="shape=module;jettyWidth=8;jettyHeight=4;" parent="-gaBI5YNp0DLK8B5nc4l-9" vertex="1">
                    <mxGeometry x="1" width="20" height="20" relative="1" as="geometry">
                        <mxPoint x="-27" y="7" as="offset"/>
                    </mxGeometry>
                </mxCell>
                <mxCell id="-gaBI5YNp0DLK8B5nc4l-64" style="edgeStyle=orthogonalEdgeStyle;rounded=0;orthogonalLoop=1;jettySize=auto;html=1;entryX=0.5;entryY=0;entryDx=0;entryDy=0;endArrow=none;endFill=0;" parent="1" source="-gaBI5YNp0DLK8B5nc4l-11" target="-gaBI5YNp0DLK8B5nc4l-62" edge="1">
                    <mxGeometry relative="1" as="geometry">
                        <Array as="points">
                            <mxPoint x="180" y="880"/>
                            <mxPoint x="356" y="880"/>
                        </Array>
                        <mxPoint x="356.25" y="918.75" as="targetPoint"/>
                    </mxGeometry>
                </mxCell>
                <mxCell id="25" style="edgeStyle=none;html=1;exitX=1;exitY=0.5;exitDx=0;exitDy=0;rounded=0;curved=0;endArrow=halfCircle;endFill=0;endSize=11;" parent="1" source="-gaBI5YNp0DLK8B5nc4l-11" edge="1">
                    <mxGeometry relative="1" as="geometry">
                        <mxPoint x="875" y="710" as="targetPoint"/>
                        <Array as="points">
                            <mxPoint x="875" y="845"/>
                        </Array>
                    </mxGeometry>
                </mxCell>
                <mxCell id="28" style="edgeStyle=none;html=1;exitX=0.5;exitY=0;exitDx=0;exitDy=0;rounded=0;curved=0;endArrow=oval;endFill=0;endSize=18;" parent="1" source="-gaBI5YNp0DLK8B5nc4l-11" edge="1">
                    <mxGeometry relative="1" as="geometry">
                        <mxPoint x="140" y="670" as="targetPoint"/>
                        <Array as="points">
                            <mxPoint x="180" y="730"/>
                            <mxPoint x="140" y="730"/>
                        </Array>
                    </mxGeometry>
                </mxCell>
                <mxCell id="61" value="Service API" style="edgeLabel;html=1;align=center;verticalAlign=middle;resizable=0;points=[];labelBackgroundColor=light-dark(#f5f5f5, #ededed);" parent="28" vertex="1" connectable="0">
                    <mxGeometry x="0.737" relative="1" as="geometry">
                        <mxPoint as="offset"/>
                    </mxGeometry>
                </mxCell>
                <mxCell id="-gaBI5YNp0DLK8B5nc4l-11" value="&amp;lt;&amp;lt;Component&amp;gt;&amp;gt;&lt;div&gt;Service&lt;/div&gt;" style="html=1;dropTarget=0;whiteSpace=wrap;" parent="1" vertex="1">
                    <mxGeometry x="110" y="810" width="140" height="70" as="geometry"/>
                </mxCell>
                <mxCell id="-gaBI5YNp0DLK8B5nc4l-12" value="" style="shape=module;jettyWidth=8;jettyHeight=4;" parent="-gaBI5YNp0DLK8B5nc4l-11" vertex="1">
                    <mxGeometry x="1" width="20" height="20" relative="1" as="geometry">
                        <mxPoint x="-27" y="7" as="offset"/>
                    </mxGeometry>
                </mxCell>
                <mxCell id="-gaBI5YNp0DLK8B5nc4l-13" value="&amp;lt;&amp;lt;Component&amp;gt;&amp;gt;&lt;div&gt;Domain&lt;/div&gt;" style="html=1;dropTarget=0;whiteSpace=wrap;" parent="1" vertex="1">
                    <mxGeometry x="110" y="1070" width="140" height="70" as="geometry"/>
                </mxCell>
                <mxCell id="-gaBI5YNp0DLK8B5nc4l-14" value="" style="shape=module;jettyWidth=8;jettyHeight=4;" parent="-gaBI5YNp0DLK8B5nc4l-13" vertex="1">
                    <mxGeometry x="1" width="20" height="20" relative="1" as="geometry">
                        <mxPoint x="-27" y="7" as="offset"/>
                    </mxGeometry>
                </mxCell>
                <mxCell id="27" style="edgeStyle=none;html=1;exitX=0.5;exitY=1;exitDx=0;exitDy=0;endArrow=oval;endFill=0;endSize=18;" parent="1" source="-gaBI5YNp0DLK8B5nc4l-15" edge="1">
                    <mxGeometry relative="1" as="geometry">
                        <mxPoint x="519.9069767441861" y="700" as="targetPoint"/>
                    </mxGeometry>
                </mxCell>
                <mxCell id="44" style="edgeStyle=none;html=1;exitX=0;exitY=0.5;exitDx=0;exitDy=0;entryX=0.5;entryY=1;entryDx=0;entryDy=0;rounded=0;curved=0;endArrow=none;endFill=0;" parent="1" source="-gaBI5YNp0DLK8B5nc4l-15" target="42" edge="1">
                    <mxGeometry relative="1" as="geometry">
                        <Array as="points">
                            <mxPoint x="400" y="555"/>
                            <mxPoint x="400" y="450"/>
                            <mxPoint x="525" y="450"/>
                        </Array>
                    </mxGeometry>
                </mxCell>
                <mxCell id="-gaBI5YNp0DLK8B5nc4l-15" value="&amp;lt;&amp;lt;Component&amp;gt;&amp;gt;&lt;div&gt;Repository&lt;/div&gt;" style="html=1;dropTarget=0;whiteSpace=wrap;" parent="1" vertex="1">
                    <mxGeometry x="450" y="520" width="140" height="70" as="geometry"/>
                </mxCell>
                <mxCell id="-gaBI5YNp0DLK8B5nc4l-16" value="" style="shape=module;jettyWidth=8;jettyHeight=4;" parent="-gaBI5YNp0DLK8B5nc4l-15" vertex="1">
                    <mxGeometry x="1" width="20" height="20" relative="1" as="geometry">
                        <mxPoint x="-27" y="7" as="offset"/>
                    </mxGeometry>
                </mxCell>
                <mxCell id="-gaBI5YNp0DLK8B5nc4l-17" value="&amp;lt;&amp;lt;Component&amp;gt;&amp;gt;&lt;div&gt;DTO&lt;/div&gt;" style="html=1;dropTarget=0;whiteSpace=wrap;" parent="1" vertex="1">
                    <mxGeometry x="310" y="666" width="140" height="70" as="geometry"/>
                </mxCell>
                <mxCell id="-gaBI5YNp0DLK8B5nc4l-18" value="" style="shape=module;jettyWidth=8;jettyHeight=4;" parent="-gaBI5YNp0DLK8B5nc4l-17" vertex="1">
                    <mxGeometry x="1" width="20" height="20" relative="1" as="geometry">
                        <mxPoint x="-27" y="7" as="offset"/>
                    </mxGeometry>
                </mxCell>
                <mxCell id="45" style="edgeStyle=none;html=1;exitX=0.5;exitY=1;exitDx=0;exitDy=0;entryX=0.5;entryY=0;entryDx=0;entryDy=0;rounded=0;curved=0;endArrow=none;endFill=0;" parent="1" source="-gaBI5YNp0DLK8B5nc4l-21" target="42" edge="1">
                    <mxGeometry relative="1" as="geometry"/>
                </mxCell>
                <mxCell id="68" style="edgeStyle=none;html=1;exitX=1;exitY=0.5;exitDx=0;exitDy=0;entryX=0.5;entryY=1;entryDx=0;entryDy=0;rounded=0;curved=0;endArrow=none;endFill=0;" parent="1" source="-gaBI5YNp0DLK8B5nc4l-21" target="55" edge="1">
                    <mxGeometry relative="1" as="geometry">
                        <Array as="points">
                            <mxPoint x="670" y="295"/>
                        </Array>
                    </mxGeometry>
                </mxCell>
                <mxCell id="-gaBI5YNp0DLK8B5nc4l-21" value="&amp;lt;&amp;lt;Component&amp;gt;&amp;gt;&lt;div&gt;Persistence&lt;/div&gt;" style="html=1;dropTarget=0;whiteSpace=wrap;" parent="1" vertex="1">
                    <mxGeometry x="455" y="260" width="140" height="70" as="geometry"/>
                </mxCell>
                <mxCell id="-gaBI5YNp0DLK8B5nc4l-22" value="" style="shape=module;jettyWidth=8;jettyHeight=4;" parent="-gaBI5YNp0DLK8B5nc4l-21" vertex="1">
                    <mxGeometry x="1" width="20" height="20" relative="1" as="geometry">
                        <mxPoint x="-27" y="7" as="offset"/>
                    </mxGeometry>
                </mxCell>
                <mxCell id="-gaBI5YNp0DLK8B5nc4l-24" value="" style="ellipse;whiteSpace=wrap;html=1;align=center;aspect=fixed;fillColor=none;strokeColor=none;resizable=0;perimeter=centerPerimeter;rotatable=0;allowArrows=0;points=[];outlineConnect=1;" parent="1" vertex="1">
                    <mxGeometry x="150" y="410" width="10" height="10" as="geometry"/>
                </mxCell>
                <mxCell id="-gaBI5YNp0DLK8B5nc4l-26" style="edgeStyle=orthogonalEdgeStyle;rounded=0;orthogonalLoop=1;jettySize=auto;html=1;entryX=1;entryY=0.5;entryDx=0;entryDy=0;entryPerimeter=0;endArrow=halfCircle;endFill=0;endSize=11;" parent="1" source="-gaBI5YNp0DLK8B5nc4l-7" edge="1">
                    <mxGeometry relative="1" as="geometry">
                        <mxPoint x="170" y="400" as="targetPoint"/>
                    </mxGeometry>
                </mxCell>
                <mxCell id="-gaBI5YNp0DLK8B5nc4l-42" value="" style="ellipse;whiteSpace=wrap;html=1;align=center;aspect=fixed;fillColor=none;strokeColor=none;resizable=0;perimeter=centerPerimeter;rotatable=0;allowArrows=0;points=[];outlineConnect=1;" parent="1" vertex="1">
                    <mxGeometry x="360" y="970" width="10" height="10" as="geometry"/>
                </mxCell>
                <mxCell id="-gaBI5YNp0DLK8B5nc4l-46" style="edgeStyle=orthogonalEdgeStyle;rounded=0;orthogonalLoop=1;jettySize=auto;html=1;endArrow=halfCircle;endFill=0;endSize=11;" parent="1" source="-gaBI5YNp0DLK8B5nc4l-11" edge="1">
                    <mxGeometry relative="1" as="geometry">
                        <mxPoint x="520" y="700" as="targetPoint"/>
                        <Array as="points">
                            <mxPoint x="380" y="820"/>
                            <mxPoint x="380" y="760"/>
                            <mxPoint x="520" y="760"/>
                        </Array>
                    </mxGeometry>
                </mxCell>
                <mxCell id="-gaBI5YNp0DLK8B5nc4l-62" value="" style="ellipse;whiteSpace=wrap;html=1;aspect=fixed;" parent="1" vertex="1">
                    <mxGeometry x="162.5" y="940" width="27" height="27" as="geometry"/>
                </mxCell>
                <mxCell id="-gaBI5YNp0DLK8B5nc4l-67" style="edgeStyle=orthogonalEdgeStyle;rounded=0;orthogonalLoop=1;jettySize=auto;html=1;entryX=1;entryY=0.5;entryDx=0;entryDy=0;endArrow=none;endFill=0;exitX=1;exitY=0.5;exitDx=0;exitDy=0;" parent="1" source="-gaBI5YNp0DLK8B5nc4l-62" target="-gaBI5YNp0DLK8B5nc4l-15" edge="1">
                    <mxGeometry relative="1" as="geometry">
                        <mxPoint x="369.9999090906085" y="932.55" as="sourcePoint"/>
                        <Array as="points">
                            <mxPoint x="670" y="958"/>
                            <mxPoint x="670" y="555"/>
                        </Array>
                    </mxGeometry>
                </mxCell>
                <mxCell id="32" style="edgeStyle=none;html=1;exitX=0.5;exitY=1;exitDx=0;exitDy=0;entryX=0.75;entryY=0;entryDx=0;entryDy=0;endArrow=none;endFill=0;rounded=0;curved=0;" parent="1" source="-gaBI5YNp0DLK8B5nc4l-69" target="-gaBI5YNp0DLK8B5nc4l-11" edge="1">
                    <mxGeometry relative="1" as="geometry">
                        <Array as="points">
                            <mxPoint x="234" y="760"/>
                            <mxPoint x="215" y="760"/>
                        </Array>
                    </mxGeometry>
                </mxCell>
                <mxCell id="60" value="&lt;span&gt;DTO API&lt;/span&gt;" style="edgeLabel;html=1;align=center;verticalAlign=middle;resizable=0;points=[];labelBackgroundColor=light-dark(#f5f5f5, #ededed);" parent="32" vertex="1" connectable="0">
                    <mxGeometry x="-0.6656" y="-2" relative="1" as="geometry">
                        <mxPoint as="offset"/>
                    </mxGeometry>
                </mxCell>
                <mxCell id="34" style="edgeStyle=none;html=1;exitX=1;exitY=0.5;exitDx=0;exitDy=0;entryX=0;entryY=0.5;entryDx=0;entryDy=0;rounded=0;curved=0;endArrow=none;endFill=0;" parent="1" source="-gaBI5YNp0DLK8B5nc4l-69" target="-gaBI5YNp0DLK8B5nc4l-17" edge="1">
                    <mxGeometry relative="1" as="geometry">
                        <Array as="points">
                            <mxPoint x="280" y="701"/>
                        </Array>
                    </mxGeometry>
                </mxCell>
                <mxCell id="-gaBI5YNp0DLK8B5nc4l-69" value="" style="ellipse;whiteSpace=wrap;html=1;aspect=fixed;" parent="1" vertex="1">
                    <mxGeometry x="220" y="687.5" width="27" height="27" as="geometry"/>
                </mxCell>
                <mxCell id="-gaBI5YNp0DLK8B5nc4l-70" value="" style="ellipse;whiteSpace=wrap;html=1;aspect=fixed;" parent="1" vertex="1">
                    <mxGeometry x="224.5" y="692" width="18" height="18" as="geometry"/>
                </mxCell>
                <mxCell id="-gaBI5YNp0DLK8B5nc4l-92" style="edgeStyle=orthogonalEdgeStyle;rounded=0;orthogonalLoop=1;jettySize=auto;html=1;endArrow=none;endFill=0;entryX=0.5;entryY=0;entryDx=0;entryDy=0;" parent="1" source="-gaBI5YNp0DLK8B5nc4l-88" target="54" edge="1">
                    <mxGeometry relative="1" as="geometry">
                        <Array as="points"/>
                        <mxPoint x="170" y="140" as="targetPoint"/>
                    </mxGeometry>
                </mxCell>
                <mxCell id="-gaBI5YNp0DLK8B5nc4l-94" value="MelmacBE API" style="edgeLabel;html=1;align=center;verticalAlign=middle;resizable=0;points=[];" parent="-gaBI5YNp0DLK8B5nc4l-92" vertex="1" connectable="0">
                    <mxGeometry x="-0.8022" y="-1" relative="1" as="geometry">
                        <mxPoint y="21" as="offset"/>
                    </mxGeometry>
                </mxCell>
                <mxCell id="-gaBI5YNp0DLK8B5nc4l-88" value="" style="ellipse;whiteSpace=wrap;html=1;aspect=fixed;" parent="1" vertex="1">
                    <mxGeometry x="155" y="20" width="30" height="30" as="geometry"/>
                </mxCell>
                <mxCell id="-gaBI5YNp0DLK8B5nc4l-93" style="edgeStyle=orthogonalEdgeStyle;rounded=0;orthogonalLoop=1;jettySize=auto;html=1;entryX=0.5;entryY=0;entryDx=0;entryDy=0;endArrow=none;endFill=0;exitX=0.5;exitY=1;exitDx=0;exitDy=0;" parent="1" source="54" target="-gaBI5YNp0DLK8B5nc4l-7" edge="1">
                    <mxGeometry relative="1" as="geometry">
                        <mxPoint x="170" y="190" as="sourcePoint"/>
                    </mxGeometry>
                </mxCell>
                <mxCell id="19" value="" style="ellipse;whiteSpace=wrap;html=1;aspect=fixed;" parent="1" vertex="1">
                    <mxGeometry x="166.88" y="944.38" width="18" height="18" as="geometry"/>
                </mxCell>
                <mxCell id="26" style="edgeStyle=none;html=1;exitX=0.5;exitY=1;exitDx=0;exitDy=0;endArrow=oval;endFill=0;endSize=18;" parent="1" source="20" edge="1">
                    <mxGeometry relative="1" as="geometry">
                        <mxPoint x="875" y="710" as="targetPoint"/>
                    </mxGeometry>
                </mxCell>
                <mxCell id="20" value="&amp;lt;&amp;lt;Component&amp;gt;&amp;gt;&lt;div&gt;Execution Dispatcher&lt;/div&gt;" style="html=1;dropTarget=0;whiteSpace=wrap;" parent="1" vertex="1">
                    <mxGeometry x="800" y="520" width="150" height="70" as="geometry"/>
                </mxCell>
                <mxCell id="21" value="" style="shape=module;jettyWidth=8;jettyHeight=4;" parent="20" vertex="1">
                    <mxGeometry x="1" width="20" height="20" relative="1" as="geometry">
                        <mxPoint x="-27" y="7" as="offset"/>
                    </mxGeometry>
                </mxCell>
                <mxCell id="36" style="edgeStyle=none;html=1;exitX=0.5;exitY=1;exitDx=0;exitDy=0;endArrow=oval;endFill=0;endSize=18;" parent="1" source="22" edge="1">
                    <mxGeometry relative="1" as="geometry">
                        <mxPoint x="875" y="420" as="targetPoint"/>
                    </mxGeometry>
                </mxCell>
                <mxCell id="67" style="edgeStyle=none;html=1;exitX=0.75;exitY=1;exitDx=0;exitDy=0;entryX=0;entryY=0.5;entryDx=0;entryDy=0;rounded=0;curved=0;endArrow=none;endFill=0;" parent="1" source="22" target="59" edge="1">
                    <mxGeometry relative="1" as="geometry">
                        <Array as="points">
                            <mxPoint x="913" y="390"/>
                        </Array>
                    </mxGeometry>
                </mxCell>
                <mxCell id="69" style="edgeStyle=none;html=1;exitX=0.335;exitY=0;exitDx=0;exitDy=0;entryX=0.5;entryY=1;entryDx=0;entryDy=0;rounded=0;curved=0;endArrow=none;endFill=0;jumpSize=7;exitPerimeter=0;" parent="1" source="22" target="56" edge="1">
                    <mxGeometry relative="1" as="geometry">
                        <Array as="points">
                            <mxPoint x="850" y="250"/>
                            <mxPoint x="817" y="250"/>
                            <mxPoint x="817" y="240"/>
                        </Array>
                    </mxGeometry>
                </mxCell>
                <mxCell id="70" style="edgeStyle=none;html=1;exitX=0.735;exitY=0.008;exitDx=0;exitDy=0;entryX=0.5;entryY=1;entryDx=0;entryDy=0;rounded=0;curved=0;exitPerimeter=0;endArrow=none;endFill=0;" parent="1" source="22" target="57" edge="1">
                    <mxGeometry relative="1" as="geometry">
                        <Array as="points">
                            <mxPoint x="910" y="240"/>
                            <mxPoint x="920" y="240"/>
                        </Array>
                    </mxGeometry>
                </mxCell>
                <mxCell id="86" style="edgeStyle=none;html=1;exitX=0.999;exitY=0.857;exitDx=0;exitDy=0;entryX=0;entryY=0.5;entryDx=0;entryDy=0;rounded=0;curved=0;exitPerimeter=0;endArrow=none;endFill=0;" parent="1" source="22" target="85" edge="1">
                    <mxGeometry relative="1" as="geometry">
                        <Array as="points">
                            <mxPoint x="960" y="320"/>
                            <mxPoint x="960" y="330"/>
                            <mxPoint x="970" y="330"/>
                        </Array>
                    </mxGeometry>
                </mxCell>
                <mxCell id="22" value="&amp;lt;&amp;lt;Component&amp;gt;&amp;gt;&lt;div&gt;Platform Execution Engine&lt;/div&gt;" style="html=1;dropTarget=0;whiteSpace=wrap;" parent="1" vertex="1">
                    <mxGeometry x="800" y="260" width="150" height="70" as="geometry"/>
                </mxCell>
                <mxCell id="23" value="" style="shape=module;jettyWidth=8;jettyHeight=4;" parent="22" vertex="1">
                    <mxGeometry x="1" width="20" height="20" relative="1" as="geometry">
                        <mxPoint x="-27" y="7" as="offset"/>
                    </mxGeometry>
                </mxCell>
                <mxCell id="35" style="edgeStyle=none;html=1;exitX=0.5;exitY=0;exitDx=0;exitDy=0;endArrow=halfCircle;endFill=0;endSize=11;" parent="1" source="20" edge="1">
                    <mxGeometry relative="1" as="geometry">
                        <mxPoint x="875" y="420" as="targetPoint"/>
                    </mxGeometry>
                </mxCell>
                <mxCell id="48" style="edgeStyle=none;html=1;exitX=1;exitY=0.5;exitDx=0;exitDy=0;entryX=0;entryY=0.5;entryDx=0;entryDy=0;endArrow=none;endFill=0;rounded=0;curved=0;" parent="1" source="42" target="46" edge="1">
                    <mxGeometry relative="1" as="geometry"/>
                </mxCell>
                <mxCell id="42" value="" style="ellipse;whiteSpace=wrap;html=1;aspect=fixed;" parent="1" vertex="1">
                    <mxGeometry x="511.5" y="401.5" width="27" height="27" as="geometry"/>
                </mxCell>
                <mxCell id="43" value="" style="ellipse;whiteSpace=wrap;html=1;aspect=fixed;" parent="1" vertex="1">
                    <mxGeometry x="516" y="406" width="18" height="18" as="geometry"/>
                </mxCell>
                <mxCell id="46" value="&amp;lt;&amp;lt;Component&amp;gt;&amp;gt;&lt;div&gt;Data Model&lt;/div&gt;" style="html=1;dropTarget=0;whiteSpace=wrap;" parent="1" vertex="1">
                    <mxGeometry x="620" y="380" width="140" height="70" as="geometry"/>
                </mxCell>
                <mxCell id="47" value="" style="shape=module;jettyWidth=8;jettyHeight=4;" parent="46" vertex="1">
                    <mxGeometry x="1" width="20" height="20" relative="1" as="geometry">
                        <mxPoint x="-27" y="7" as="offset"/>
                    </mxGeometry>
                </mxCell>
                <mxCell id="50" style="edgeStyle=none;html=1;exitX=0.5;exitY=1;exitDx=0;exitDy=0;entryX=0.471;entryY=0;entryDx=0;entryDy=0;entryPerimeter=0;rounded=0;curved=0;endArrow=none;endFill=0;" parent="1" source="-gaBI5YNp0DLK8B5nc4l-62" target="-gaBI5YNp0DLK8B5nc4l-13" edge="1">
                    <mxGeometry relative="1" as="geometry"/>
                </mxCell>
                <mxCell id="54" value="" style="rounded=0;whiteSpace=wrap;html=1;" parent="1" vertex="1">
                    <mxGeometry x="160" y="150" width="20" height="20" as="geometry"/>
                </mxCell>
                <mxCell id="71" style="edgeStyle=none;html=1;exitX=0.5;exitY=0;exitDx=0;exitDy=0;endArrow=halfCircle;endFill=0;entryX=0.5;entryY=1;entryDx=0;entryDy=0;" parent="1" source="55" target="72" edge="1">
                    <mxGeometry relative="1" as="geometry"/>
                </mxCell>
                <mxCell id="55" value="" style="rounded=0;whiteSpace=wrap;html=1;" parent="1" vertex="1">
                    <mxGeometry x="660" y="150" width="20" height="20" as="geometry"/>
                </mxCell>
                <mxCell id="78" style="edgeStyle=none;html=1;exitX=0.5;exitY=0;exitDx=0;exitDy=0;entryX=0.5;entryY=1;entryDx=0;entryDy=0;endArrow=halfCircle;endFill=0;" parent="1" source="56" target="77" edge="1">
                    <mxGeometry relative="1" as="geometry"/>
                </mxCell>
                <mxCell id="56" value="" style="rounded=0;whiteSpace=wrap;html=1;" parent="1" vertex="1">
                    <mxGeometry x="807" y="150" width="20" height="20" as="geometry"/>
                </mxCell>
                <mxCell id="80" style="edgeStyle=none;html=1;exitX=0.5;exitY=0;exitDx=0;exitDy=0;entryX=0.5;entryY=1;entryDx=0;entryDy=0;endArrow=halfCircle;endFill=0;" parent="1" source="57" target="79" edge="1">
                    <mxGeometry relative="1" as="geometry"/>
                </mxCell>
                <mxCell id="57" value="" style="rounded=0;whiteSpace=wrap;html=1;" parent="1" vertex="1">
                    <mxGeometry x="910" y="150" width="20" height="20" as="geometry"/>
                </mxCell>
                <mxCell id="84" style="edgeStyle=none;html=1;exitX=1;exitY=0.5;exitDx=0;exitDy=0;entryX=0;entryY=0.5;entryDx=0;entryDy=0;endArrow=halfCircle;endFill=0;" parent="1" source="58" target="81" edge="1">
                    <mxGeometry relative="1" as="geometry"/>
                </mxCell>
                <mxCell id="58" value="" style="rounded=0;whiteSpace=wrap;html=1;" parent="1" vertex="1">
                    <mxGeometry x="995" y="265" width="20" height="20" as="geometry"/>
                </mxCell>
                <mxCell id="83" style="edgeStyle=none;html=1;exitX=1;exitY=0.5;exitDx=0;exitDy=0;entryX=0;entryY=0.5;entryDx=0;entryDy=0;endArrow=halfCircle;endFill=0;" parent="1" source="59" target="82" edge="1">
                    <mxGeometry relative="1" as="geometry"/>
                </mxCell>
                <mxCell id="59" value="" style="rounded=0;whiteSpace=wrap;html=1;" parent="1" vertex="1">
                    <mxGeometry x="995" y="380" width="20" height="20" as="geometry"/>
                </mxCell>
                <mxCell id="63" style="edgeStyle=none;html=1;exitX=1;exitY=0.25;exitDx=0;exitDy=0;entryX=-0.003;entryY=0.603;entryDx=0;entryDy=0;entryPerimeter=0;endArrow=none;endFill=0;" parent="1" source="22" target="58" edge="1">
                    <mxGeometry relative="1" as="geometry"/>
                </mxCell>
                <mxCell id="72" value="SQL API" style="text;html=1;align=center;verticalAlign=middle;whiteSpace=wrap;rounded=0;" parent="1" vertex="1">
                    <mxGeometry x="630" y="50" width="80" height="30" as="geometry"/>
                </mxCell>
                <mxCell id="77" value="AUT (iOS)" style="text;html=1;align=center;verticalAlign=middle;whiteSpace=wrap;rounded=0;" parent="1" vertex="1">
                    <mxGeometry x="777" y="50" width="80" height="30" as="geometry"/>
                </mxCell>
                <mxCell id="79" value="AUT (Android)" style="text;html=1;align=center;verticalAlign=middle;whiteSpace=wrap;rounded=0;" parent="1" vertex="1">
                    <mxGeometry x="880" y="50" width="80" height="30" as="geometry"/>
                </mxCell>
                <mxCell id="81" value="iOS Device" style="text;html=1;align=center;verticalAlign=middle;whiteSpace=wrap;rounded=0;" parent="1" vertex="1">
                    <mxGeometry x="1120" y="260" width="80" height="30" as="geometry"/>
                </mxCell>
                <mxCell id="82" value="Android Device" style="text;html=1;align=center;verticalAlign=middle;whiteSpace=wrap;rounded=0;" parent="1" vertex="1">
                    <mxGeometry x="1120" y="375" width="80" height="30" as="geometry"/>
                </mxCell>
                <mxCell id="88" style="edgeStyle=none;html=1;exitX=1;exitY=0.5;exitDx=0;exitDy=0;entryX=0;entryY=0.5;entryDx=0;entryDy=0;endArrow=halfCircle;endFill=0;" parent="1" source="85" target="87" edge="1">
                    <mxGeometry relative="1" as="geometry"/>
                </mxCell>
                <mxCell id="85" value="" style="rounded=0;whiteSpace=wrap;html=1;" parent="1" vertex="1">
                    <mxGeometry x="995" y="320" width="20" height="20" as="geometry"/>
                </mxCell>
                <mxCell id="87" value="DriverRunner Bridge" style="text;html=1;align=center;verticalAlign=middle;whiteSpace=wrap;rounded=0;" parent="1" vertex="1">
                    <mxGeometry x="1120" y="315" width="90" height="30" as="geometry"/>
                </mxCell>
            </root>
        </mxGraphModel>
    </diagram>
</mxfile>